C:/Program Files/Krita (x64)/bin/ffmpeg.exe -hide_banner -y -y -r 2 -start_number 0 -start_number_range 1 -i C:/Users/Gusta/Desktop/Website/images/frame%04d.png -i C:/Users/Gusta/Desktop/Website/images/KritaTempPalettegen_%06d.png -lavfi [0:v][1:v]paletteuse=dither=sierra2_4a:diff_mode=none -f gif -loop 0 -gifflags +transdiff C:/Users/Gusta/Desktop/Website/images/gurralol.gif
=====================================================
Input #0, image2, from 'C:/Users/Gusta/Desktop/Website/images/frame%04d.png':
  Duration: 00:00:00.12, start: 0.000000, bitrate: N/A
  Stream #0:0: Video: png, rgba(pc), 457x245 [SAR 2834:2834 DAR 457:245], 25 fps, 25 tbr, 25 tbn, 25 tbc
Input #1, image2, from 'C:/Users/Gusta/Desktop/Website/images/KritaTempPalettegen_%06d.png':
  Duration: 00:00:00.04, start: 0.000000, bitrate: N/A
  Stream #1:0: Video: png, rgba(pc), 16x16 [SAR 1:1 DAR 1:1], 25 fps, 25 tbr, 25 tbn, 25 tbc
Stream mapping:
  Stream #0:0 (png) -> paletteuse:default
  Stream #1:0 (png) -> paletteuse:palette
  paletteuse -> Stream #0:0 (gif)
Press [q] to stop, [?] for help
Output #0, gif, to 'C:/Users/Gusta/Desktop/Website/images/gurralol.gif':
  Metadata:
    encoder         : Lavf58.76.100
  Stream #0:0: Video: gif, pal8(pc, gbr/unknown/unknown, progressive), 457x245 [SAR 1:1 DAR 457:245], q=2-31, 200 kb/s, 2 fps, 100 tbn (default)
    Metadata:
      encoder         : Lavc58.134.100 gif
frame=    1 fps=0.0 q=-0.0 size=       0kB time=00:00:00.01 bitrate=   0.0kbits/s speed=0.586x    frame=    3 fps=0.0 q=-0.0 Lsize=     109kB time=00:00:01.01 bitrate= 883.2kbits/s speed=32.6x    
video:109kB audio:0kB subtitle:0kB other streams:0kB global headers:0kB muxing overhead: 0.017941%
